<svg xmlns="http://www.w3.org/2000/svg" viewBox="0 0 24 24" fill="none" stroke="#f6f3fb" stroke-width="2" stroke-linecap="round" stroke-linejoin="round"><circle cx="12" cy="12" r="3"/><path d="M19.4 15a1.7 1.7 0 0 0 .3 1.9l.1.1-2.1 2.1-.1-.1a1.7 1.7 0 0 0-1.9-.3 1.7 1.7 0 0 0-1 1.6V21h-3v-.2a1.7 1.7 0 0 0-1-1.6 1.7 1.7 0 0 0-1.9.3l-.1.1L6.6 17l.1-.1A1.7 1.7 0 0 0 7 15a1.7 1.7 0 0 0-1.6-1H5v-3h.4A1.7 1.7 0 0 0 7 10a1.7 1.7 0 0 0-.3-1.9l-.1-.1L8.7 5.9l.1.1a1.7 1.7 0 0 0 1.9.3 1.7 1.7 0 0 0 1-1.6V4h3v.7a1.7 1.7 0 0 0 1 1.6 1.7 1.7 0 0 0 1.9-.3l.1-.1L19.8 8l-.1.1A1.7 1.7 0 0 0 19.4 10a1.7 1.7 0 0 0 1.6 1h.4v3H21a1.7 1.7 0 0 0-1.6 1z"/></svg>
