<svg xmlns="http://www.w3.org/2000/svg" width="1440" height="920" viewBox="0 0 1440 920" role="img" aria-labelledby="title desc">
  <title id="title">Study Budy desktop application mockup</title>
  <desc id="desc">A native-style Study Budy desktop dashboard with navigation, live status, task list, overlay URL and task controls.</desc>
  <defs><linearGradient id="bg" x1="0" y1="0" x2="1" y2="1"><stop stop-color="#12111f"/><stop offset="1" stop-color="#201735"/></linearGradient></defs>
  <rect width="1440" height="920" rx="18" fill="url(#bg)"/>
  <rect x="1" y="1" width="1438" height="918" rx="17" fill="none" stroke="#5c526f"/>
  <rect width="1440" height="46" rx="18" fill="#211c31"/><rect y="28" width="1440" height="18" fill="#211c31"/>
  <circle cx="28" cy="23" r="8" fill="#9f7aea"/><text x="46" y="29" fill="#f7f2ff" font-family="Segoe UI, Arial" font-weight="700" font-size="16">Study Budy</text>
  <text x="210" y="29" fill="#c5bbd4" font-family="Segoe UI, Arial" font-size="14">File</text><text x="254" y="29" fill="#c5bbd4" font-family="Segoe UI, Arial" font-size="14">View</text><text x="302" y="29" fill="#c5bbd4" font-family="Segoe UI, Arial" font-size="14">Settings</text><text x="376" y="29" fill="#c5bbd4" font-family="Segoe UI, Arial" font-size="14">Help</text>
  <text x="1340" y="29" fill="#dcd3e8" font-family="Segoe UI, Arial" font-size="16">—　□　×</text>
  <rect x="0" y="46" width="228" height="874" fill="#181424"/><text x="28" y="89" fill="#9f7aea" font-family="Segoe UI, Arial" font-size="22" font-weight="700">STUDY BUDY</text><text x="28" y="112" fill="#a99fba" font-family="Segoe UI, Arial" font-size="12">STREAM TASK CONTROL</text>
  <g font-family="Segoe UI, Arial" font-size="15"><rect x="16" y="142" width="196" height="44" rx="9" fill="#493668"/><text x="48" y="170" fill="#fff" font-weight="700">▦  Dashboard</text><text x="48" y="222" fill="#c9bfd6">✓  Tasks</text><text x="48" y="274" fill="#c9bfd6">⌁  Connections</text><text x="48" y="326" fill="#c9bfd6">◉  Appearance</text><text x="48" y="378" fill="#c9bfd6">?  Help</text></g>
  <rect x="18" y="828" width="192" height="62" rx="10" fill="#282034"/><circle cx="42" cy="855" r="7" fill="#44d7a8"/><text x="58" y="851" fill="#f5f1fa" font-family="Segoe UI, Arial" font-weight="700" font-size="13">Task system running</text><text x="58" y="871" fill="#b8adc7" font-family="Segoe UI, Arial" font-size="12">Overlay: localhost</text>
  <g font-family="Segoe UI, Arial"><text x="270" y="98" fill="#f8f5fc" font-size="31" font-weight="700">Good evening, streamer.</text><text x="270" y="126" fill="#bcb1cc" font-size="15">Your stream task system is ready to go.</text>
  <rect x="1110" y="75" width="278" height="48" rx="24" fill="#173f39" stroke="#3fc99c"/><circle cx="1138" cy="99" r="7" fill="#44d7a8"/><text x="1155" y="104" fill="#dffcf3" font-size="15" font-weight="700">LIVE • Overlay running</text>
  <g><rect x="270" y="160" width="260" height="118" rx="14" fill="#282137"/><text x="294" y="193" fill="#c8bdd7" font-size="13">TWITCH CHAT</text><text x="294" y="231" fill="#f6f0fd" font-size="22" font-weight="700">Connected</text><text x="294" y="255" fill="#65ddb2" font-size="13">● killer_queen55</text></g>
  <g><rect x="548" y="160" width="260" height="118" rx="14" fill="#282137"/><text x="572" y="193" fill="#c8bdd7" font-size="13">ACTIVE PARTICIPANTS</text><text x="572" y="239" fill="#f6f0fd" font-size="33" font-weight="700">12</text></g>
  <g><rect x="826" y="160" width="260" height="118" rx="14" fill="#282137"/><text x="850" y="193" fill="#c8bdd7" font-size="13">INCOMPLETE TASKS</text><text x="850" y="239" fill="#f6f0fd" font-size="33" font-weight="700">27</text></g>
  <rect x="270" y="304" width="728" height="536" rx="14" fill="#282137"/><text x="294" y="342" fill="#f8f5fc" font-size="20" font-weight="700">Current tasks</text><text x="294" y="368" fill="#b8aec6" font-size="14">Manage viewer and streamer tasks without leaving your stream.</text><rect x="777" y="323" width="196" height="38" rx="8" fill="#6d4d9f"/><text x="802" y="348" fill="#fff" font-size="14" font-weight="700">＋ Add streamer task</text>
  <g><rect x="294" y="395" width="680" height="104" rx="10" fill="#211a2e"/><text x="320" y="426" fill="#f6f0fd" font-size="16" font-weight="700">♛  Streamer</text><text x="320" y="452" fill="#d9d0e3" font-size="14">☐  Plan stream schedule</text><text x="320" y="479" fill="#d9d0e3" font-size="14">☐  Edit highlight reel</text><text x="888" y="426" fill="#a89eb8" font-size="13">2 active　⌄</text></g>
  <g><rect x="294" y="514" width="680" height="104" rx="10" fill="#211a2e"/><text x="320" y="545" fill="#f6f0fd" font-size="16" font-weight="700">◉  luna_loves_books</text><text x="320" y="571" fill="#d9d0e3" font-size="14">☐  Finish chemistry notes</text><text x="320" y="598" fill="#8d829b" font-size="14">☑  Start Pomodoro timer</text><text x="888" y="545" fill="#a89eb8" font-size="13">1 active　⌄</text></g>
  <g><rect x="294" y="633" width="680" height="74" rx="10" fill="#211a2e"/><text x="320" y="665" fill="#f6f0fd" font-size="16" font-weight="700">◉  pixelpal</text><text x="320" y="691" fill="#d9d0e3" font-size="14">☐  Read chapter 4</text><text x="888" y="665" fill="#a89eb8" font-size="13">1 active　⌄</text></g>
  <rect x="1020" y="304" width="368" height="282" rx="14" fill="#282137"/><text x="1044" y="342" fill="#f8f5fc" font-size="20" font-weight="700">OBS / Streamlabs overlay</text><text x="1044" y="370" fill="#b8aec6" font-size="14">Add this to a Browser Source.</text><rect x="1044" y="392" width="320" height="45" rx="8" fill="#171320"/><text x="1058" y="420" fill="#d9d0e3" font-size="13">http://127.0.0.1:5155/overlay</text><rect x="1044" y="454" width="152" height="40" rx="8" fill="#6d4d9f"/><text x="1073" y="480" fill="#fff" font-size="14" font-weight="700">Copy URL</text><rect x="1212" y="454" width="152" height="40" rx="8" fill="#3b304c"/><text x="1230" y="480" fill="#f4effa" font-size="14">Open preview ↗</text><text x="1044" y="532" fill="#c8bdd7" font-size="13">Recommended: 1920 × 1080 · 30 FPS</text><text x="1044" y="556" fill="#65ddb2" font-size="13">● Server healthy · localhost only</text>
  <rect x="1020" y="606" width="368" height="234" rx="14" fill="#282137"/><text x="1044" y="644" fill="#f8f5fc" font-size="20" font-weight="700">Session controls</text><rect x="1044" y="670" width="98" height="42" rx="8" fill="#48b98f"/><text x="1070" y="697" fill="#10241e" font-size="14" font-weight="700">Start</text><rect x="1155" y="670" width="98" height="42" rx="8" fill="#3b304c"/><text x="1184" y="697" fill="#f6f0fd" font-size="14">Stop</text><rect x="1266" y="670" width="98" height="42" rx="8" fill="#3b304c"/><text x="1281" y="697" fill="#f6f0fd" font-size="14">Restart</text><text x="1044" y="751" fill="#b8aec6" font-size="14">Completed this session</text><text x="1044" y="790" fill="#f6f0fd" font-size="31" font-weight="700">18</text></g>
</svg>
